<svg id="Layer_1" data-name="Layer 1" xmlns="http://www.w3.org/2000/svg" viewBox="0 0 93.53 270.74"><defs><style>.cls-1{fill:#5ecbf1;}.cls-2{fill:none;stroke:#231f20;stroke-miterlimit:10;stroke-width:3px;}</style></defs><title>bttle5</title><rect class="cls-1" x="2.68" y="162.14" width="88.04" height="79.25"/><polygon class="cls-1" points="2.71 239.68 90.69 239.68 90.17 250.32 86.86 258.99 82.57 263.33 61.68 268.52 43.1 269.24 23.63 267.14 12.89 265 4.79 254.46 2.71 239.68"/><path class="cls-2" d="M283.09,262.13v5.29s2.51,18.92-4.73,36.45S262.5,351.73,262.23,369a296.42,296.42,0,0,0-1.39,36.71c.55,19.21,1.11,94.62,1.11,94.62s-1.07,19.2,10.17,25.32c0,0,40.75,10.57,69.68-1.67,0,0,8.35-4.45,8.07-19.48L351.26,396s-.83-44-8.62-65.14S325.39,282.44,329,269.09l-.28-7Z" transform="translate(-259.24 -260.63)"/><path class="cls-2" d="M305.74,264.25h22.83s4.91,1.11.18,4.45H283s-4-2.81-.17-4.45Z" transform="translate(-259.24 -260.63)"/><path class="cls-2" d="M305.74,271.87h22.83s4.91,1.11.18,4.45H283s-4-2.82-.17-4.45Z" transform="translate(-259.24 -260.63)"/></svg>