<svg id="Layer_1" data-name="Layer 1" xmlns="http://www.w3.org/2000/svg" viewBox="0 0 93.53 270.74"><defs><style>.cls-1{fill:#5ecbf1;}.cls-2{fill:none;stroke:#231f20;stroke-miterlimit:10;stroke-width:3px;}</style></defs><title>bttle10</title><polygon class="cls-1" points="21.9 30.79 5.71 83.67 87.63 83.67 71.51 30.79 21.9 30.79"/><rect class="cls-1" x="2.68" y="108.35" width="88.04" height="131.6"/><polygon class="cls-1" points="5.71 83.67 1.44 131.71 91.97 131.71 87.63 83.67 5.71 83.67"/><polygon class="cls-1" points="21.96 34.56 23.86 1.5 69.49 1.5 70.23 32.45 21.96 34.56"/><polygon class="cls-1" points="2.71 239.68 90.69 239.68 90.17 250.32 86.86 258.99 82.57 263.33 61.68 268.52 43.1 269.24 23.63 267.14 12.89 265 4.79 254.46 2.71 239.68"/><path class="cls-2" d="M283.13,262.13v5.29s2.5,18.92-4.73,36.45S262.54,351.73,262.26,369a296.42,296.42,0,0,0-1.39,36.71c.55,19.21,1.11,94.62,1.11,94.62s-1.07,19.2,10.18,25.32c0,0,40.74,10.57,69.68-1.67,0,0,8.34-4.45,8.06-19.48L351.3,396s-.84-44-8.63-65.14S325.42,282.44,329,269.09l-.28-7Z" transform="translate(-259.27 -260.63)"/><path class="cls-2" d="M305.77,264.25H328.6s4.91,1.11.18,4.45H283s-4-2.81-.17-4.45Z" transform="translate(-259.27 -260.63)"/><path class="cls-2" d="M305.77,271.87H328.6s4.91,1.11.18,4.45H283s-4-2.82-.17-4.45Z" transform="translate(-259.27 -260.63)"/></svg>