<svg id="Layer_1" data-name="Layer 1" xmlns="http://www.w3.org/2000/svg" viewBox="0 0 207.16 261.02"><defs><style>.cls-1{fill:#5ecbf1;}</style></defs><title>g10</title><path class="cls-1" d="M407.94,472.32a5.58,5.58,0,0,1-1.86-3.64,194.7,194.7,0,0,1-.23-20.64h-203c.21,4.52.94,9,1.43,13.49.64,5.8.31,11.6.76,17.4a4.51,4.51,0,0,1-.62,2.81l1.06,5.31,17.42,24.71L275.07,526c5.33-2.1,11.34-2.29,17-2.31a4.53,4.53,0,0,1,4.35,2.69l53-3.23,51.77-14.47c0-.11,0-.21.07-.32,2.79-9.09,2.68-18.72,6.68-27.46.28-.61.53-1.22.76-1.84C408.53,476.71,408.27,474.45,407.94,472.32Z" transform="translate(-202.42 -265.49)"/><path class="cls-1" d="M405.53,428c-1.18-13.3-3.54-26.47-4.5-39.79-.94-12.89.7-25.7-3.25-38.2-1.25-4-2.49-8.55-4.23-12.84l-.47,0a5.17,5.17,0,0,1-3.54-1.47l-1.5-1.5a5,5,0,0,1-1.39-2.93,4,4,0,0,1-2.39-3.27c-1.95-11.7-66.41-24.62-59.09-42.33h-44a17.22,17.22,0,0,1-2,1.76,4.8,4.8,0,0,1-.79,1.76c-9.62,13.72-25.08,19.81-39.66,26.68a66,66,0,0,0-19.92,14.65c-3.29,3.51-8.56,8.71-10.8,14.12q-.24,4.52-.44,9a4.85,4.85,0,0,1-3.21,4.53v95.23H405.74C405.88,445,406.29,436.47,405.53,428ZM388.4,396.51c-1,4.57-9,5-9.64,0-1-7.36-2.81-14.57-3.12-22a118,118,0,0,1-3.88-15,5.15,5.15,0,0,1,1.89-4.95,22.19,22.19,0,0,0-1.89-3.86c-3.39-5.5,5.26-10.51,8.64-5,4.26,6.9,5.14,14.56,5.19,22.51,0,1.68.09,3.32.2,5C388.14,380.85,390.13,388.65,388.4,396.51Z" transform="translate(-202.42 -265.49)"/><path d="M409.58,440.54v31.07c-1.34,8.25-2.61,16.52-4,24.76-2,11.71-8.91,19.29-20.47,21.78s-23.56,4.48-35.41,6.2c-7.93,1.16-16,1.47-24,2.16H274.93a29.73,29.73,0,0,0-3.38-.92q-17-2.6-34.1-5.11c-17.76-2.58-27.39-13.73-31.78-30.27-1.35-5.09-2.18-10.32-3.25-15.49V389.79a29.86,29.86,0,0,0,.74-3.93c.42-8.62.87-17.23,1.13-25.85.42-13.16,5.45-24.51,15.57-32.54,9.23-7.33,19.7-13.12,29.72-19.43,8-5,16.19-9.76,24.18-14.8A5.24,5.24,0,0,0,276,289.6c.08-3.21-.66-6.44-.69-9.66-.1-11.67,0-11.67,11.19-14a3.37,3.37,0,0,0,.91-.49h32.11a36.42,36.42,0,0,1,5.92,1.26c1.46.55,3.79,1.78,3.8,2.73.06,7.3,2.28,14.82-2.12,22.64,6.19,3.55,12.41,7.13,18.65,10.67,10.45,5.93,21.06,11.58,31.32,17.81,17,10.32,23.3,26.15,24.5,45.53,1.09,17.72-1.15,35.75,4.88,53.17C408.72,426,408.6,433.44,409.58,440.54Zm-10.77-39.63c-1-14.92-1.87-29.53-3-44.11-.77-9.8-4.55-18.16-12.06-24.9-10.63-9.54-22.64-16.82-35.46-22.89-9.35-4.43-18.78-8.67-26.09-16.4-.87-.91-2.77-1.17-4.19-1.18-10.87-.1-21.74-.12-32.6,0a8.72,8.72,0,0,0-4.56,1.5c-7.22,4.93-14.1,10.4-21.52,15-9.07,5.6-18.83,10.08-27.81,15.81-11.57,7.37-20.21,17.35-22.34,31.47a152.84,152.84,0,0,0-1.48,20.63c-.4,30.36-.74,60.73-.77,91.09,0,11.26,1.79,22.34,7.12,32.5,3.92,7.47,9.49,13.38,18,15,13.33,2.58,26.72,6.17,40.16,6.55,25.81.72,51.7,0,77.51-1.18,11.41-.54,22.74-3.54,34-5.91,10-2.09,15.85-8.67,17.44-18.72,1.4-8.83,2.93-17.68,3.5-26.58,1.16-17.94.39-35.81-3.55-53.47-1.38-6.21-4.23-10.16-10.82-11.95-7.21-2-13.86-5.52-16.59-13.42-5.47-15.88-5.77-32.06-2.73-48.44.63-3.38,2.25-4.11,5-2.28,5.92,3.93,11,8.88,11.78,16.18,1.34,12.14,2.31,24.35,2.6,36.56C390.55,397.21,391.91,400.23,398.81,400.91Zm-24-56.94c-.48,6.22-1.71,11.73-1.14,17.06a257.55,257.55,0,0,0,4.82,27.77c.74,3.4,3.1,6.31,8,7-.64-11.95-1.05-23.47-2-34.95C384,354.32,381.57,348.47,374.77,344Z" transform="translate(-202.42 -265.49)"/></svg>